<svg xmlns="http://www.w3.org/2000/svg" width="920" height="680" viewBox="0 0 920 680">
  <rect width="920" height="680" fill="#101813"/>
  <rect x="36" y="26" width="848" height="48" rx="14" fill="#1a2720" stroke="#304437"/>
  <text x="64" y="57" fill="#aebbad" font-family="sans-serif" font-size="14" letter-spacing="2">OMARCHY BAR</text>
  <circle cx="824" cy="50" r="17" fill="#dff59e" fill-opacity=".14" stroke="#dff59e" stroke-opacity=".5"/>
  <text x="824" y="57" fill="#dff59e" font-family="sans-serif" font-size="22" text-anchor="middle">●</text>

  <path d="M790 87 L820 67 L850 87 Z" fill="#202f26"/>
  <rect x="492" y="84" width="392" height="548" rx="18" fill="#202f26" stroke="#3c5142"/>
  <text x="524" y="130" fill="#f2efdd" font-family="sans-serif" font-weight="700" font-size="24">Your corner of Baton</text>
  <text x="524" y="158" fill="#aebbad" font-family="sans-serif" font-size="14">Small hellos, moving between Omarchs</text>
  <text x="524" y="178" fill="#aebbad" font-family="sans-serif" font-size="14">around the world.</text>

  <rect x="524" y="205" width="158" height="116" rx="12" fill="#dff59e" fill-opacity=".07" stroke="#dff59e" stroke-opacity=".28"/>
  <text x="603" y="252" fill="#dff59e" font-family="sans-serif" font-weight="700" font-size="31" text-anchor="middle">1,284</text>
  <text x="603" y="282" fill="#bcc7ba" font-family="sans-serif" font-size="13" text-anchor="middle">waves sent</text>
  <text x="603" y="300" fill="#bcc7ba" font-family="sans-serif" font-size="13" text-anchor="middle">to Omarchs</text>

  <rect x="694" y="205" width="158" height="116" rx="12" fill="#dff59e" fill-opacity=".07" stroke="#dff59e" stroke-opacity=".28"/>
  <text x="773" y="252" fill="#dff59e" font-family="sans-serif" font-weight="700" font-size="31" text-anchor="middle">14</text>
  <text x="773" y="282" fill="#bcc7ba" font-family="sans-serif" font-size="13" text-anchor="middle">countries</text>
  <text x="773" y="300" fill="#bcc7ba" font-family="sans-serif" font-size="13" text-anchor="middle">reached you</text>

  <circle cx="531" cy="353" r="5" fill="#dff59e"/>
  <text x="547" y="358" fill="#cbd4c8" font-family="sans-serif" font-size="14">7 Omarchs online now</text>
  <line x1="524" y1="384" x2="852" y2="384" stroke="#f2efdd" stroke-opacity=".12"/>
  <text x="524" y="419" fill="#f2efdd" font-family="sans-serif" font-weight="700" font-size="14">Your signal</text>

  <text x="524" y="458" fill="#f2efdd" font-family="sans-serif" font-size="15">Show my country</text>
  <text x="524" y="481" fill="#9eaa9d" font-family="sans-serif" font-size="12">Waves can show your approximate country.</text>
  <rect x="802" y="443" width="50" height="28" rx="14" fill="#dff59e"/>
  <circle cx="838" cy="457" r="10" fill="#172219"/>

  <text x="524" y="529" fill="#f2efdd" font-family="sans-serif" font-size="15">Chime on incoming wave</text>
  <text x="524" y="552" fill="#9eaa9d" font-family="sans-serif" font-size="12">A short sound plays when someone waves.</text>
  <rect x="802" y="514" width="50" height="28" rx="14" fill="#dff59e"/>
  <circle cx="838" cy="528" r="10" fill="#172219"/>

  <text x="36" y="642" fill="#708075" font-family="sans-serif" font-size="12" letter-spacing="1.5">EXPERIMENTAL MOCKUP · SAMPLE DATA · LOCAL COUNTRY HISTORY</text>
</svg>
